<?xml version="1.0" encoding="UTF-8"?>
<svg xmlns="http://www.w3.org/2000/svg" viewBox="0 0 512 512">
  <path d="M256 86c94 0 170 76 170 170S350 426 256 426 86 350 86 256 162 86 256 86Zm0 20c-83 0-150 67-150 150s67 150 150 150 150-67 150-150S339 106 256 106Zm0 48c57 0 103 46 103 103h-20c0-46-37-83-83-83s-83 37-83 83h-20c0-57 46-103 103-103Zm0 84c10 0 18 8 18 18s-8 18-18 18-18-8-18-18 8-18 18-18Zm-114 70c35-33 71-50 114-50s79 17 114 50l-14 15c-32-30-63-45-100-45s-68 15-100 45l-14-15Z" fill="#fff"/>
</svg>